<?xml version="1.0" encoding="utf-8"?>
<!-- Generator: Adobe Illustrator 16.0.0, SVG Export Plug-In . SVG Version: 6.00 Build 0)  -->
<!DOCTYPE svg PUBLIC "-//W3C//DTD SVG 1.1//EN" "http://www.w3.org/Graphics/SVG/1.1/DTD/svg11.dtd">
<svg version="1.1" id="Capa_1" xmlns="http://www.w3.org/2000/svg" xmlns:xlink="http://www.w3.org/1999/xlink" x="0px" y="0px"
	 width="546.719px" height="149.72px" viewBox="0 0 546.719 149.72" enable-background="new 0 0 546.719 149.72"
	 xml:space="preserve">
<g>
	<g>
		<path fill-rule="evenodd" clip-rule="evenodd" fill="#FFFFFF" d="M0,25.937c5.037-8.031,12.131-11.72,21.69-10.483
			c5.631,0.727,9.65-0.043,9.124-7.599c-0.336-4.822,2.95-8.007,8.237-7.85c5.447,0.162,7.813,3.869,7.601,8.569
			c-0.275,6.083,2.555,6.995,7.731,6.885c13.277-0.283,26.564-0.147,39.846-0.061c4.151,0.027,7.929,0.376,7.458-5.817
			c-0.397-5.212,1.661-9.309,7.672-9.563c6.089-0.257,8.512,3.813,8.278,8.967c-0.297,6.543,3.396,6.452,8.116,6.563
			c19.025,0.45,22.547,4.103,22.565,22.865c0.027,29.438,0.039,58.874-0.012,88.312c-0.029,16.763-4.474,21.443-20.86,21.492
			c-35.897,0.107-71.8-0.198-107.695,0.197C10.796,148.514,4.957,144.633,0,138.083C0,100.702,0,63.32,0,25.937z M74.491,131.292
			c16.138,0,32.287-0.333,48.41,0.156c6.778,0.206,8.534-2.017,8.421-8.535c-0.367-21.153-0.321-42.319-0.017-63.475
			c0.085-5.935-1.461-8.119-7.753-8.065c-32.992,0.275-65.988,0.241-98.98,0.021c-5.66-0.038-7.359,1.768-7.286,7.375
			c0.281,21.515,0.407,43.041-0.049,64.548c-0.151,7.126,2.688,8.231,8.84,8.095C42.208,131.055,58.352,131.292,74.491,131.292z"/>
		<polygon fill-rule="evenodd" clip-rule="evenodd" fill="#FFFFFF" points="73.802,58.316 83.068,77.091 103.788,80.102 
			88.794,94.717 92.334,115.353 73.802,105.61 55.269,115.353 58.809,94.717 43.815,80.102 64.535,77.091 		"/>
	</g>
	<g>
		<path fill-rule="evenodd" clip-rule="evenodd" fill="#FFFFFF" d="M235.588,59.07c-2.409,1.245-4.499,2.595-6.772,3.454
			c-9.889,3.733-21.251-2.002-24.578-12.284c-3.362-10.393,2.727-21.565,13.342-24.477c10.229-2.807,21.438,3.539,23.502,13.804
			c0.9,4.476,0.57,9.204,0.736,13.821c0.078,2.153,0.008,4.313,0.008,6.47c0,1.995-0.728,3.58-2.902,3.674
			c-2.143,0.094-3.121-1.289-3.179-3.367C235.737,59.854,235.659,59.543,235.588,59.07z M222.502,31.365
			c-7.291,0.042-13.025,5.857-12.957,13.138c0.068,7.147,5.848,12.887,13.006,12.916c7.183,0.029,13.177-5.936,13.15-13.083
			C235.676,37.13,229.766,31.324,222.502,31.365z"/>
		<path fill-rule="evenodd" clip-rule="evenodd" fill="#FFFFFF" d="M355.645,59.157c-2.204,1.144-4.225,2.441-6.42,3.288
			c-9.781,3.774-21.369-1.816-24.614-11.764c-3.491-10.703,2.251-21.717,12.95-24.845c10.139-2.964,21.41,3.265,23.711,13.465
			c0.813,3.598,0.619,7.435,0.758,11.169c0.107,2.95,0.033,5.907,0.017,8.861c-0.016,2.688-0.982,4.204-2.846,4.22
			c-2.511,0.021-3.209-1.651-3.257-3.817C355.94,59.596,355.805,59.46,355.645,59.157z M342.829,31.364
			c-7.289-0.012-13.072,5.762-13.058,13.034c0.015,7.152,5.72,12.913,12.895,13.023c7.161,0.108,13.178-5.774,13.274-12.98
			C356.037,37.31,350.086,31.375,342.829,31.364z"/>
		<path fill-rule="evenodd" clip-rule="evenodd" fill="#FFFFFF" d="M256.898,29.212c3.468-1.327,6.668-3.156,10.084-3.749
			c11.543-2.006,21.901,6.834,22.097,18.531c0.087,5.189,0.038,10.382,0.019,15.573c-0.01,2.615-1.131,4.037-3.06,4.01
			c-1.918-0.027-2.974-1.42-2.99-4.084c-0.032-4.872,0.093-9.746-0.05-14.614c-0.246-8.41-6.055-13.884-14.111-13.477
			c-6.255,0.316-11.718,5.603-11.958,11.883c-0.202,5.264-0.064,10.539-0.116,15.81c-0.009,0.862,0.075,1.985-0.405,2.525
			c-0.762,0.856-2.012,1.879-2.962,1.794c-0.946-0.085-1.938-1.34-2.597-2.296c-0.39-0.564-0.226-1.546-0.227-2.341
			c-0.012-9.583-0.008-19.166-0.005-28.75c0-0.559-0.005-1.12,0.044-1.675c0.162-1.815,1.033-3.085,2.959-3.129
			c1.9-0.043,2.881,1.14,3.17,2.943C256.864,28.63,256.888,29.102,256.898,29.212z"/>
		<path fill-rule="evenodd" clip-rule="evenodd" fill="#FFFFFF" d="M382.248,63.624c-2.798,0.001-5.597,0.039-8.392-0.011
			c-2.244-0.041-3.605-1.203-3.545-3.025c0.074-2.207,1.492-3.069,3.501-3.085c5.194-0.04,10.391,0.028,15.584-0.058
			c3.329-0.055,5.509-2.211,5.421-5.122c-0.08-2.725-2.115-4.709-5.219-4.863c-2.552-0.127-5.115-0.001-7.671-0.06
			c-6.845-0.16-11.638-4.715-11.687-11.055c-0.047-6.219,4.586-10.922,11.301-11.245c3.668-0.177,7.353-0.095,11.026-0.027
			c2.465,0.045,3.775,1.214,3.776,3.106c0.002,1.88-1.348,3.077-3.773,3.123c-3.596,0.071-7.193-0.014-10.789,0.042
			c-3.29,0.053-5.328,1.945-5.367,4.85c-0.039,3.016,2.044,4.98,5.445,5.047c2.637,0.051,5.275-0.04,7.912,0.034
			c6.478,0.182,11.212,5.037,11.135,11.349c-0.076,6.201-4.801,10.847-11.227,10.989C387.204,63.667,384.726,63.622,382.248,63.624z
			"/>
		<path fill-rule="evenodd" clip-rule="evenodd" fill="#FFFFFF" d="M185.239,25.043c3.305,0,6.174-0.003,9.043,0.002
			c0.718,0.002,1.442-0.019,2.153,0.062c1.791,0.201,3.104,1.109,3.143,2.995c0.042,2.036-1.369,3.04-3.229,3.157
			c-2.386,0.149-4.789,0.057-7.184,0.065c-1.186,0.003-2.372,0-3.802,0c-0.048,1.037-0.12,1.882-0.121,2.728
			c-0.008,8.226,0.006,16.452-0.02,24.677c-0.003,0.943,0.083,2.085-0.392,2.778c-0.604,0.882-1.765,1.967-2.637,1.926
			c-1.006-0.046-2.081-1.113-2.887-1.962c-0.408-0.43-0.394-1.358-0.395-2.062c-0.019-13.815-0.091-27.631,0.024-41.446
			c0.052-6.147,3.692-10.625,9.239-11.845c3.769-0.827,7.122,0.188,10.022,2.669c1.437,1.228,2.047,2.775,0.747,4.412
			c-1.25,1.573-2.889,1.63-4.437,0.414c-1.999-1.569-4.138-2.144-6.448-0.951c-2.462,1.271-2.95,3.557-2.838,6.118
			C185.308,20.752,185.239,22.732,185.239,25.043z"/>
		<path fill-rule="evenodd" clip-rule="evenodd" fill="#FFFFFF" d="M471.126,63.618c-10.21,0.007-17.538-5.569-20.097-14.162
			c-2.297-7.705,1.1-16.705,7.986-21.171c7.272-4.716,16.679-4.16,23.105,1.545c0.949,0.844,1.653,2.345,1.769,3.605
			c0.064,0.72-1.3,2.232-1.998,2.22c-1.362-0.025-2.906-0.604-4.03-1.424c-4.657-3.394-9.524-3.946-14.584-1.249
			c-6.604,3.522-8.736,12.142-4.702,18.406c4.121,6.395,12.882,7.965,18.895,3.383c0.383-0.29,0.732-0.62,1.11-0.912
			c1.566-1.207,3.193-1.568,4.704-0.006c1.342,1.385,1.039,3.139-0.785,4.785C478.852,61.928,474.538,63.548,471.126,63.618z"/>
		<path fill-rule="evenodd" clip-rule="evenodd" fill="#FFFFFF" d="M304.106,25.055c2.816,0,5.279-0.047,7.739,0.016
			c1.694,0.044,3.204,0.535,3.604,2.488c0.436,2.128-0.942,3.638-3.549,3.738c-2.463,0.094-4.931,0.02-7.585,0.02
			c-0.082,0.896-0.198,1.583-0.2,2.268c-0.013,5.837,0.031,11.674-0.023,17.509c-0.021,2.418,0.595,4.496,2.82,5.673
			c2.193,1.159,4.314,0.76,6.266-0.763c1.596-1.245,3.238-1.433,4.66,0.237c1.262,1.479,0.87,3.181-1.08,4.726
			c-3.393,2.686-7.209,3.452-11.266,1.907c-4.107-1.566-6.671-4.579-7.325-9.013c-0.197-1.338-0.269-2.706-0.272-4.06
			c-0.02-11.513-0.012-23.026-0.012-34.539c0-0.24,0-0.479,0.002-0.721c0.034-3.263,1.012-4.748,3.121-4.738
			c2.146,0.009,3.086,1.432,3.098,4.738C304.116,17.952,304.106,21.364,304.106,25.055z"/>
		<path fill-rule="evenodd" clip-rule="evenodd" fill="#FFFFFF" d="M415.914,25.053c2.689,0,5.153-0.044,7.614,0.016
			c1.817,0.044,3.342,0.641,3.633,2.734c0.281,2.008-1.107,3.408-3.592,3.495c-2.463,0.086-4.932,0.019-7.593,0.019
			c-0.074,0.913-0.177,1.602-0.179,2.291c-0.013,5.836,0.036,11.671-0.026,17.505c-0.026,2.43,0.609,4.49,2.834,5.66
			c2.194,1.154,4.32,0.75,6.265-0.777c1.608-1.263,3.253-1.395,4.661,0.248c1.247,1.452,0.81,3.21-1.111,4.728
			c-3.479,2.748-7.38,3.48-11.485,1.81c-4.055-1.651-6.576-4.71-7.117-9.173c-0.154-1.266-0.223-2.548-0.225-3.824
			c-0.018-11.511-0.01-23.021-0.008-34.531c0-0.639-0.018-1.281,0.021-1.918c0.118-1.964,0.846-3.516,3.084-3.503
			c2.215,0.011,3.04,1.521,3.076,3.509c0.056,2.957,0.013,5.914,0.029,8.871C415.799,23.067,415.865,23.922,415.914,25.053z"/>
		<path fill-rule="evenodd" clip-rule="evenodd" fill="#FFFFFF" d="M443.684,44.399c0,4.949,0.02,9.898-0.006,14.847
			c-0.017,2.902-1.021,4.313-2.979,4.332c-1.981,0.019-3.114-1.47-3.119-4.248c-0.019-9.978-0.007-19.956-0.007-29.933
			c0-0.24-0.007-0.479,0.01-0.719c0.147-2.21,1.339-3.576,3.147-3.468c2.076,0.125,2.917,1.469,2.928,3.384
			c0.03,5.268,0.011,10.536,0.011,15.804C443.674,44.399,443.679,44.399,443.684,44.399z"/>
		<path fill-rule="evenodd" clip-rule="evenodd" fill="#FFFFFF" d="M444.062,13.229c-0.042,1.852-1.531,3.28-3.411,3.272
			c-1.977-0.009-3.462-1.584-3.351-3.551c0.108-1.885,1.597-3.224,3.504-3.152C442.66,9.868,444.105,11.39,444.062,13.229z"/>
	</g>
	<g>
		<path fill-rule="evenodd" clip-rule="evenodd" fill="#FFFFFF" d="M352.483,120.075c0.421,7.742,8.296,15.804,16.59,17.59
			c7.748,1.669,14.793,0.205,20.988-4.868c0.535-0.438,1.064-0.882,1.623-1.279c2.804-1.988,5.648-2.409,8.191,0.288
			c2.286,2.428,2.161,6.064-1.088,8.332c-4.57,3.193-9.416,6.621-14.662,8.094c-19.226,5.396-37.781-5.464-43.265-24.599
			c-5.188-18.094,5.624-37.248,24.265-42.985c21.002-6.465,44.227,9.925,44.832,31.638c0.164,5.834-1.599,7.745-7.524,7.766
			c-14.917,0.055-29.832,0.023-44.747,0.024C356.053,120.077,354.421,120.075,352.483,120.075z M397.49,108.661
			c-2.063-11.632-13.212-19.055-25.969-17.773c-9.489,0.953-19.179,9.97-18.868,17.773
			C367.489,108.661,382.333,108.661,397.49,108.661z"/>
		<path fill-rule="evenodd" clip-rule="evenodd" fill="#FFFFFF" d="M189.69,120.077c0.661,2.114,0.91,3.439,1.468,4.616
			c6.561,13.799,24.107,17.97,36.14,8.624c0.108-0.086,0.204-0.188,0.312-0.274c4.652-3.677,8.196-3.998,10.444-0.944
			c2.29,3.106,1.148,6.383-3.504,10.052c-12.33,9.721-29.506,10.071-42.451,0.866c-12.631-8.987-17.756-25.622-12.489-40.553
			c4.968-14.081,19.531-23.901,34.398-23.2c16.063,0.761,29.191,11.647,32.905,27.289c0.128,0.537,0.328,1.062,0.421,1.604
			c1.492,8.778,0.315,12.232-9.523,12.004c-14.081-0.331-28.174-0.085-42.266-0.083C193.91,120.077,192.276,120.077,189.69,120.077z
			 M235.445,108.554c-2.352-11.737-13.595-19.135-26.383-17.647c-9.331,1.085-18.848,10.061-18.562,17.647
			C205.458,108.554,220.419,108.554,235.445,108.554z"/>
		<path fill-rule="evenodd" clip-rule="evenodd" fill="#FFFFFF" d="M434.253,87.776c2.942-1.759,5.538-3.518,8.313-4.938
			c21.757-11.155,49.36,4.951,50.183,29.397c0.342,10.211,0.139,20.444,0.088,30.668c-0.018,4.234-2.326,6.822-5.676,6.709
			c-3.221-0.104-5.285-2.515-5.324-6.615c-0.086-9.116,0.105-18.238-0.08-27.354c-0.32-15.425-11.094-25.631-25.957-24.825
			c-11.471,0.622-21.274,10.126-21.723,21.644c-0.377,9.656-0.102,19.337-0.229,29.006c-0.024,1.743-0.078,3.887-1.047,5.112
			c-1.129,1.429-3.4,2.98-4.953,2.775c-1.759-0.23-3.65-2.094-4.762-3.736c-0.814-1.204-0.602-3.198-0.605-4.84
			c-0.035-17.545-0.024-35.089-0.018-52.636c0.002-1.103,0.029-2.213,0.15-3.307c0.347-3.146,2.021-5.242,5.256-5.379
			c3.432-0.146,5.277,1.955,5.912,5.196C433.962,85.574,434.063,86.506,434.253,87.776z"/>
		<path fill-rule="evenodd" clip-rule="evenodd" fill="#FFFFFF" d="M293.306,131.182c1.536-2.897,2.592-4.786,3.556-6.719
			c6.582-13.212,13.145-26.432,19.717-39.649c0.186-0.368,0.395-0.728,0.596-1.091c2.219-4.013,5.236-5.341,8.344-3.668
			c3.023,1.627,3.744,4.646,1.816,8.636c-2.816,5.839-5.766,11.611-8.666,17.41c-6.419,12.83-12.717,25.724-19.389,38.42
			c-1.123,2.14-3.826,4.71-5.852,4.754c-1.986,0.045-4.852-2.456-5.936-4.561c-9.542-18.514-18.805-37.173-28.069-55.828
			c-2.365-4.766-0.813-8.796,3.453-9.421c3.467-0.51,5.314,1.633,6.7,4.42c5.589,11.239,11.184,22.477,16.801,33.703
			C288.502,121.836,290.69,126.055,293.306,131.182z"/>
		<path fill-rule="evenodd" clip-rule="evenodd" fill="#FFFFFF" d="M520.327,79.188c5.195,0,9.723-0.103,14.244,0.035
			c3.465,0.104,6.295,1.315,6.551,5.396c0.225,3.571-2.045,5.802-6.387,5.959c-4.646,0.169-9.303,0.038-14.408,0.038
			c0,6.221-0.002,11.845,0.002,17.469c0.004,6.76,0.025,13.521,0.014,20.284c-0.008,3.96,1.754,7.019,5.139,8.835
			c3.557,1.911,7.197,1.502,10.551-0.836c0.455-0.315,0.895-0.649,1.344-0.967c2.934-2.075,5.766-1.987,8.037,0.859
			c2.211,2.769,1.447,5.529-1.023,7.703c-6.178,5.428-13.283,7.256-21.139,4.459c-7.58-2.703-12.398-8.047-13.785-16.12
			c-0.395-2.298-0.543-4.665-0.547-7c-0.041-21.666-0.029-43.332-0.018-64.997c0.002-6.286,1.932-9.197,5.906-9.05
			c3.879,0.146,5.51,2.805,5.518,9.027C520.334,66.339,520.327,72.393,520.327,79.188z"/>
	</g>
</g>
</svg>
